<?xml version="1.0" encoding="utf-8"?>
<!-- Generator: Adobe Illustrator 21.0.2, SVG Export Plug-In . SVG Version: 6.00 Build 0)  -->
<svg version="1.1" id="Isolation_Mode" xmlns="http://www.w3.org/2000/svg" xmlns:xlink="http://www.w3.org/1999/xlink" x="0px"
	 y="0px" viewBox="0 0 145.8 51.9" style="enable-background:new 0 0 145.8 51.9;" xml:space="preserve">
<style type="text/css">
	.st0{fill:#A6A8AB;}
	.st1{fill:#B72025;}
	.st2{fill:#A7AAAC;}
</style>
<g>
	<g>
		<rect x="19.3" y="9.3" class="st0" width="2.2" height="23.3"/>
		<rect x="42.9" y="9.3" class="st0" width="2.1" height="23.3"/>
		<rect x="63.2" y="9.3" class="st0" width="2.1" height="23.3"/>
		<rect x="83.5" y="9.3" class="st0" width="2.1" height="23.3"/>
		<rect x="102.8" y="9.3" class="st0" width="2.1" height="23.3"/>
		<rect x="125.8" y="9.3" class="st0" width="2.1" height="23.3"/>
	</g>
	<g>
		<path class="st1" d="M12.6,13.7c1.3,0,2.3,0.3,3,0.6l0.7-2.8c-0.6-0.3-2-0.6-3.9-0.6c-4.8,0-8.6,2.9-8.6,8.3
			c0,4.5,2.8,7.9,8.3,7.9c1.9,0,3.3-0.4,4-0.6l-0.5-2.8c-0.7,0.3-1.9,0.5-3,0.5c-3.2,0-5-2-5-5.1C7.6,15.4,9.8,13.7,12.6,13.7z"/>
		<path class="st1" d="M32.3,10.8c0,0-0.1,0-0.1,0c-4.5,0-7.5,3.5-7.5,8.2c0,4.5,2.7,8,7.4,8h0c0,0,0,0,0.1,0c4.5,0,7.6-3.1,7.6-8.3
			C39.7,14.4,37.1,10.8,32.3,10.8z M32.2,24.2L32.2,24.2c-2.4,0-3.8-2.3-3.8-5.2c0-2.9,1.4-5.3,3.8-5.3c0,0,0,0,0,0
			c2.4,0,3.8,2.5,3.8,5.2C36,21.9,34.5,24.2,32.2,24.2z"/>
		<path class="st1" d="M58.5,12.2c-0.9-0.7-2.2-1.2-4-1.3c-0.3,0-0.6,0-0.9,0c-2.2,0-3.7,0.1-4.8,0.3v15.5h3.5v-5.7
			c0.3,0.1,0.7,0.1,1.2,0.1c0.3,0,0.6,0,0.9,0c1.7-0.1,3.2-0.7,4.2-1.7c1-0.9,1.4-2.2,1.4-3.7C60.1,14.3,59.5,13,58.5,12.2z
			 M54.5,18.4c-0.3,0-0.6,0.1-1,0.1c-0.5,0-0.9,0-1.2-0.1v-4.7c0.2,0,0.7-0.1,1.5-0.1c0.2,0,0.5,0,0.6,0c1.4,0.2,2.1,1,2.1,2.3
			C56.7,17.2,55.9,18.1,54.5,18.4z"/>
		<path class="st1" d="M78.8,12.2c-0.9-0.7-2.2-1.2-4-1.3c-0.3,0-0.6,0-0.9,0c-2.2,0-3.6,0.1-4.8,0.3v15.5h3.5v-5.7
			c0.3,0.1,0.7,0.1,1.2,0.1c0.3,0,0.6,0,0.9,0c1.7-0.1,3.2-0.7,4.2-1.7c1-0.9,1.4-2.2,1.4-3.7C80.5,14.3,79.9,13,78.8,12.2z
			 M74.9,18.4c-0.3,0-0.6,0.1-1,0.1c-0.5,0-0.9,0-1.2-0.1v-4.7c0.2,0,0.7-0.1,1.5-0.1c0.2,0,0.5,0,0.6,0c1.4,0.2,2.1,1,2.1,2.3
			C77,17.2,76.2,18.1,74.9,18.4z"/>
		<polygon class="st1" points="93.2,20.1 96.4,20.1 96.4,17.2 93.2,17.2 93.2,14 99.3,14 99.3,11 89.6,11 89.6,26.8 99.6,26.8 
			99.6,23.9 93.2,23.9 		"/>
		<path class="st1" d="M118.6,15.6c0,2.4,0,4.5,0.3,6.6h0c-0.7-1.7-1.7-3.7-2.6-5.4L113,11h-4.1v15.7h3.3V22c0-2.6,0-4.8-0.2-6.9
			h0.1c0.7,1.8,1.8,3.8,2.7,5.5l3.3,6.1h3.7V11h-3.2V15.6z"/>
		<path class="st1" d="M137.9,17.4c-2.1-0.7-2.9-1.2-2.9-2.2c0-0.8,0.7-1.5,2.3-1.5c1.5,0,2.7,0.4,3.3,0.7l0.7-2.9
			c-0.9-0.4-2.2-0.7-4-0.7c-3.7,0-6,2-6,4.7c0,2.3,1.7,3.8,4.4,4.7c1.8,0.6,2.6,1.2,2.6,2.2c0,1.1-0.9,1.7-2.5,1.7
			c-1.5,0-3-0.5-3.9-1l-0.7,2.9c0.9,0.5,2.7,1,4.4,1c4.3,0,6.3-2.2,6.3-4.9C142,19.9,140.7,18.5,137.9,17.4z"/>
		<path class="st1" d="M5.1,7.9h0.2L5.3,8l0.4,0.6h0.3L5.6,7.9c0.3,0,0.4-0.2,0.4-0.4C6.1,7.1,5.9,7,5.5,7H5.4H4.8v1.7h0.3V7.9z
			 M5.1,7.2h0.3h0.1c0.2,0,0.4,0.1,0.4,0.2c0,0.3-0.2,0.3-0.4,0.3H5.3H5.1V7.2z"/>
		<path class="st1" d="M5.3,9.3c0.8,0,1.4-0.7,1.4-1.4c0-0.8-0.6-1.4-1.4-1.4c-0.8,0-1.4,0.6-1.4,1.4C3.9,8.6,4.5,9.3,5.3,9.3z
			 M5.3,6.6c0.7,0,1.2,0.5,1.2,1.2S6.1,9,5.3,9c-0.6,0-1.2-0.5-1.2-1.2C4.2,7.1,4.7,6.6,5.3,6.6z"/>
	</g>
	<g>
		<polygon class="st2" points="19.1,45.1 19.3,45.2 19.7,45.3 20,45.4 20.4,45.4 20.8,45.4 21.2,45.3 21.4,45.2 21.7,45 21.9,44.8 
			22,44.5 22,44.3 22.1,44 22.1,43.7 22,43.5 21.9,43.3 21.8,43.1 21.6,43 21.4,42.8 21.2,42.7 20.8,42.6 20.6,42.5 20.4,42.3 
			20.2,42.3 20.1,42.1 20,42 19.9,41.9 19.9,41.8 19.9,41.6 19.9,41.5 19.9,41.4 20,41.2 20.1,41.1 20.2,41 20.4,40.9 20.5,40.9 
			20.8,40.8 21.1,40.9 21.4,41 21.6,41 21.7,41.1 21.9,40.6 21.7,40.5 21.5,40.4 21.2,40.4 20.8,40.3 20.5,40.4 20.2,40.4 
			19.9,40.5 19.7,40.7 19.4,40.9 19.3,41.1 19.2,41.4 19.2,41.7 19.2,41.9 19.3,42.1 19.4,42.3 19.5,42.5 19.8,42.7 20,42.8 
			20.2,43 20.5,43.1 20.7,43.2 20.9,43.3 21.1,43.4 21.3,43.5 21.3,43.6 21.4,43.7 21.4,43.9 21.5,44.1 21.4,44.3 21.4,44.4 
			21.3,44.5 21.2,44.7 21,44.8 20.8,44.8 20.7,44.9 20.4,44.9 20.1,44.9 19.8,44.8 19.5,44.7 19.3,44.6 		"/>
		<path class="st2" d="M25.7,45.4H26l0.2,0l0.2,0l0.2-0.1l0.2-0.1l0.2-0.1l0.2-0.1l0.2-0.1l0.1-0.2l0.1-0.2l0.1-0.2l0.1-0.2l0.1-0.3
			l0.1-0.3l0-0.3v-0.3v-0.3l0.1-0.3L27.9,42l0-0.2l-0.1-0.2l-0.1-0.2l-0.1-0.2l-0.1-0.2L27.3,41l-0.1-0.1L27,40.7l-0.2-0.1l-0.2-0.1
			l-0.2-0.1l-0.2,0h-0.3h-0.3l-0.2,0l-0.2,0.1L25,40.6l-0.2,0.1l-0.2,0.1L24.5,41l-0.2,0.1l-0.1,0.2l-0.1,0.2L24,41.6l-0.1,0.3
			l-0.1,0.2l0,0.3l0,0.3V43v0.3l0,0.3l0,0.3l0.1,0.3l0.1,0.2l0.1,0.2l0.1,0.2l0.1,0.1l0.1,0.2l0.1,0.1l0.2,0.1l0.2,0.1l0.2,0.1
			l0.2,0.1L25.7,45.4L25.7,45.4L25.7,45.4L25.7,45.4z M25.7,44.9h-0.2l-0.2,0l-0.1-0.1l-0.1-0.1L25,44.7l-0.1-0.1l-0.1-0.1l-0.1-0.1
			L24.5,44l-0.1-0.3l-0.1-0.4l0-0.4l0-0.4l0.1-0.4l0.1-0.3l0.2-0.3l0.1-0.1l0.1-0.1l0.1-0.1l0.1-0.1l0.2-0.1l0.1-0.1h0.2l0.2,0
			l0.2,0h0.1l0.2,0.1l0.1,0.1l0.1,0.1l0.1,0.1l0.1,0.1l0.1,0.1l0.1,0.3l0.1,0.3l0.1,0.4v0.4v0.4l-0.1,0.4L27,44l-0.2,0.3l-0.1,0.1
			l-0.1,0.1l-0.1,0.1l-0.1,0.1l-0.1,0l-0.1,0.1l-0.2,0H25.7L25.7,44.9z"/>
		<polygon class="st2" points="29.7,45.3 32.4,45.3 32.4,44.8 30.3,44.8 30.3,40.4 29.7,40.4 		"/>
		<polygon class="st2" points="33.7,40.4 33.7,43.3 33.7,43.6 33.7,43.8 33.8,44.1 33.8,44.3 33.9,44.5 34,44.7 34.1,44.8 
			34.2,44.9 34.3,45 34.5,45.2 34.6,45.2 34.7,45.3 35.1,45.4 35.5,45.4 35.9,45.4 36.2,45.3 36.4,45.2 36.5,45.2 36.6,45 
			36.8,44.9 36.9,44.8 37,44.7 37.1,44.5 37.2,44.3 37.3,44.1 37.3,43.8 37.3,43.5 37.3,43.3 37.3,40.4 36.6,40.4 36.6,43.3 
			36.6,43.7 36.6,44 36.5,44.3 36.3,44.5 36.2,44.7 36,44.8 35.8,44.9 35.5,44.9 35.2,44.9 35,44.8 34.8,44.7 34.6,44.5 34.5,44.3 
			34.4,44.1 34.4,43.7 34.3,43.3 34.3,40.4 		"/>
		<polygon class="st2" points="42.6,44.7 42.4,44.8 42.1,44.8 41.8,44.9 41.5,44.9 41.3,44.9 41.1,44.8 40.9,44.8 40.7,44.8 
			40.5,44.7 40.4,44.6 40.3,44.5 40.2,44.4 40,44.2 39.9,44.1 39.8,43.9 39.8,43.7 39.7,43.3 39.6,42.9 39.6,42.7 39.7,42.5 
			39.7,42.2 39.8,42 39.8,41.9 40,41.7 40,41.5 40.2,41.4 40.3,41.3 40.4,41.2 40.6,41.1 40.8,41 41.1,40.9 41.6,40.9 41.9,40.9 
			42.1,40.9 42.3,41 42.6,41.1 42.7,40.5 42.6,40.5 42.3,40.4 42,40.4 41.5,40.3 41.3,40.3 41,40.4 40.7,40.4 40.5,40.5 40.3,40.6 
			40.1,40.7 39.8,40.9 39.7,41.1 39.5,41.2 39.4,41.4 39.3,41.6 39.2,41.9 39.1,42.1 39,42.4 39,42.6 39,42.9 39,43.2 39,43.5 
			39.1,43.8 39.2,44 39.3,44.2 39.4,44.4 39.5,44.6 39.7,44.8 39.8,44.9 40,45 40.2,45.2 40.4,45.3 40.7,45.3 40.9,45.4 41.1,45.4 
			41.4,45.4 41.8,45.4 42.2,45.3 42.5,45.3 42.7,45.2 		"/>
		<rect x="44.3" y="40.4" class="st2" width="0.6" height="4.9"/>
		<path class="st2" d="M48.8,45.4h0.3l0.2,0l0.2,0l0.2-0.1l0.2-0.1l0.2-0.1l0.2-0.1l0.2-0.1l0.1-0.2l0.1-0.2l0.1-0.2l0.1-0.2
			l0.1-0.3l0.1-0.3l0-0.3v-0.3v-0.3l0-0.3L50.9,42l0-0.2l-0.1-0.2l-0.1-0.2l-0.1-0.2l-0.1-0.2L50.3,41l-0.1-0.1L50,40.7l-0.2-0.1
			l-0.2-0.1l-0.2-0.1l-0.2,0h-0.3h-0.3l-0.2,0l-0.2,0.1L48,40.6l-0.2,0.1l-0.2,0.1L47.5,41l-0.2,0.1l-0.1,0.2l-0.1,0.2L47,41.6
			l-0.1,0.3l-0.1,0.2l0,0.3l0,0.3V43v0.3l0,0.3l0,0.3l0.1,0.3l0.1,0.2l0.1,0.2l0.1,0.2l0.1,0.1l0.1,0.2l0.1,0.1l0.2,0.1l0.2,0.1
			l0.2,0.1l0.2,0.1l0.3,0L48.8,45.4L48.8,45.4L48.8,45.4z M48.8,44.9h-0.2l-0.2,0l-0.1-0.1l-0.1-0.1l-0.1-0.1L48,44.6l-0.1-0.1
			l-0.1-0.1L47.6,44l-0.1-0.3l-0.1-0.4l0-0.4l0-0.4l0.1-0.4l0.1-0.3l0.2-0.3l0.1-0.1l0.1-0.1l0.1-0.1l0.1-0.1l0.2-0.1l0.1-0.1h0.2
			l0.2,0l0.2,0h0.1l0.2,0.1l0.1,0.1l0.1,0.1l0.1,0.1l0.1,0.1l0.1,0.1l0.1,0.3l0.1,0.3l0.1,0.4v0.4v0.4l-0.1,0.4L50.1,44l-0.2,0.3
			l-0.1,0.1l-0.1,0.1l-0.1,0.1l-0.1,0.1l-0.1,0l-0.1,0.1l-0.2,0L48.8,44.9L48.8,44.9z"/>
		<polygon class="st2" points="53.4,45.3 53.4,43.2 53.4,42.7 53.4,42.1 53.4,41.7 53.3,41.2 53.4,41.2 53.5,41.6 53.7,42 54,42.4 
			54.3,42.9 55.9,45.3 56.5,45.3 56.5,40.4 55.9,40.4 55.9,42.5 55.9,43 55.9,43.5 55.9,44 56,44.5 55.9,44.5 55.8,44.2 55.6,43.7 
			55.3,43.3 55,42.9 53.5,40.4 52.8,40.4 52.8,45.3 		"/>
		<polygon class="st2" points="61,42.5 59.1,42.5 59.1,41 61.1,41 61.1,40.4 58.4,40.4 58.4,45.3 61.2,45.3 61.2,44.8 59.1,44.8 
			59.1,43 61,43 		"/>
		<polygon class="st2" points="62.6,45.1 62.8,45.2 63.1,45.3 63.5,45.4 63.9,45.4 64.3,45.4 64.6,45.3 64.9,45.2 65.2,45 
			65.3,44.8 65.5,44.5 65.6,44.3 65.6,44 65.6,43.7 65.5,43.5 65.4,43.3 65.3,43.1 65.1,43 64.9,42.8 64.6,42.7 64.3,42.6 
			64.1,42.5 63.9,42.3 63.7,42.3 63.6,42.1 63.5,42 63.4,41.9 63.4,41.8 63.4,41.6 63.4,41.5 63.4,41.4 63.5,41.2 63.6,41.1 
			63.7,41 63.8,40.9 64.1,40.9 64.3,40.8 64.6,40.9 64.9,41 65.1,41 65.2,41.1 65.4,40.6 65.2,40.5 64.9,40.4 64.6,40.4 64.3,40.3 
			63.9,40.4 63.7,40.4 63.4,40.5 63.1,40.7 62.9,40.9 62.8,41.1 62.7,41.4 62.7,41.7 62.7,41.9 62.8,42.1 62.9,42.3 63.1,42.5 
			63.2,42.7 63.5,42.8 63.7,43 64,43.1 64.2,43.2 64.4,43.3 64.6,43.4 64.7,43.5 64.8,43.6 64.9,43.7 64.9,43.9 64.9,44.1 
			64.9,44.3 64.9,44.4 64.8,44.5 64.7,44.7 64.5,44.8 64.3,44.8 64.1,44.9 63.9,44.9 63.6,44.9 63.3,44.8 63,44.7 62.8,44.6 		"/>
		<path class="st2" d="M69.7,45.3h0.6v-2l0.2,0h0.3H71l0.2,0l0.2,0l0.2-0.1l0.2-0.1l0.2-0.1l0.1-0.1l0.1-0.1l0.1-0.2l0.1-0.3
			l0.1-0.3v-0.3v-0.3l-0.1-0.3L72.3,41l-0.2-0.2l-0.2-0.1l-0.3-0.1l-0.4-0.1l-0.4,0h-0.4l-0.3,0l-0.3,0l-0.3,0v4.8H69.7z M70.3,40.9
			l0.2,0h0.4h0.3l0.2,0.1l0.2,0.1l0.1,0.1l0.1,0.1l0.1,0.2l0,0.2l0,0.3l0,0.2l0,0.2l-0.1,0.2l-0.1,0.1l-0.2,0.1l-0.2,0.1l-0.2,0.1
			h-0.3h-0.3l-0.2,0L70.3,40.9L70.3,40.9z"/>
		<path class="st2" d="M76.3,43.8l0.5,1.5h0.7l-1.7-4.9H75l-1.7,4.9H74l0.5-1.5H76.3L76.3,43.8z M74.6,43.3l0.5-1.4l0.1-0.4l0.1-0.4
			h0l0.1,0.4l0.1,0.4l0.5,1.4H74.6z"/>
		<path class="st2" d="M79,45.3h0.6v-2.1h0.6h0.2l0.2,0l0.1,0.1l0.1,0.1l0.1,0.1l0.1,0.1l0.1,0.2l0.1,0.3l0.1,0.4l0.1,0.4l0.1,0.3
			l0.1,0.1h0.6l-0.1-0.2l-0.1-0.3l-0.1-0.4L81.8,44l-0.1-0.4l-0.1-0.3l-0.1-0.1l-0.1-0.1L81.2,43l-0.1,0v0l0.2-0.1l0.2-0.1l0.1-0.1
			l0.1-0.1l0.1-0.2l0.1-0.2l0.1-0.2v-0.2l0-0.3l-0.1-0.3L81.7,41l-0.1-0.2l-0.1-0.1l-0.1-0.1l-0.1,0l-0.1-0.1l-0.4-0.1l-0.5,0h-0.3
			l-0.3,0l-0.3,0l-0.3,0v4.8H79z M79.7,40.9l0.3,0h0.4h0.2l0.2,0l0.2,0.1l0.2,0.1l0.1,0.1l0.1,0.2l0.1,0.2l0,0.2l0,0.2l-0.1,0.2
			l-0.1,0.2l-0.1,0.1L81,42.5l-0.2,0.1l-0.2,0h-0.3h-0.6L79.7,40.9L79.7,40.9z"/>
		<path class="st2" d="M86.4,43.8l0.5,1.5h0.7l-1.7-4.9h-0.8l-1.7,4.9h0.6l0.5-1.5H86.4L86.4,43.8z M84.7,43.3l0.5-1.4l0.1-0.4
			l0.1-0.4h0l0.1,0.4l0.1,0.4l0.5,1.4H84.7z"/>
		<polygon class="st2" points="94.1,42.5 92.1,42.5 92.1,41 94.2,41 94.2,40.4 91.5,40.4 91.5,45.3 94.3,45.3 94.3,44.8 92.1,44.8 
			92.1,43 94.1,43 		"/>
		<polygon class="st2" points="95.9,45.3 98.7,45.3 98.7,44.8 96.6,44.8 96.6,40.4 95.9,40.4 		"/>
		<polygon class="st2" points="102.6,40.4 102.6,45.3 103.2,45.3 103.2,43 105.6,43 105.6,45.3 106.3,45.3 106.3,40.4 105.6,40.4 
			105.6,42.5 103.2,42.5 103.2,40.4 		"/>
		<path class="st2" d="M110.2,45.4h0.2l0.2,0l0.2,0l0.2-0.1l0.2-0.1l0.2-0.1l0.2-0.1l0.2-0.1l0.1-0.2l0.1-0.2l0.1-0.2l0.1-0.2
			l0.1-0.3l0.1-0.3l0-0.3v-0.3v-0.3l0-0.3l-0.1-0.3l0-0.2l-0.1-0.2l-0.1-0.2l-0.1-0.2l-0.1-0.2l-0.1-0.1l-0.1-0.1l-0.2-0.1l-0.2-0.1
			l-0.2-0.1l-0.2-0.1l-0.2,0h-0.3h-0.2l-0.3,0l-0.2,0.1l-0.2,0.1l-0.2,0.1l-0.2,0.1l-0.2,0.1l-0.2,0.1l-0.1,0.2l-0.1,0.2l-0.1,0.2
			l-0.1,0.3l-0.1,0.2l0,0.3l0,0.3V43v0.3l0,0.3l0,0.3l0.1,0.3l0.1,0.2l0.1,0.2l0.1,0.2l0.1,0.1l0.1,0.2l0.1,0.1l0.2,0.1l0.2,0.1
			l0.2,0.1l0.2,0.1l0.3,0L110.2,45.4L110.2,45.4L110.2,45.4z M110.2,44.9H110l-0.2,0l-0.1-0.1l-0.1-0.1l-0.1-0.1l-0.1-0.1l-0.1-0.1
			l-0.1-0.1l-0.2-0.3l-0.1-0.3l-0.1-0.4l0-0.4l0-0.4l0.1-0.4l0.1-0.3l0.2-0.3l0.1-0.1l0.1-0.1l0.1-0.1l0.1-0.1l0.2-0.1l0.1-0.1h0.2
			l0.2,0l0.2,0h0.2l0.1,0.1l0.1,0.1l0.1,0.1l0.1,0.1l0.1,0.1l0.1,0.1l0.1,0.3l0.1,0.3l0.1,0.4v0.4v0.4l-0.1,0.4l-0.1,0.3l-0.2,0.3
			l-0.1,0.1l-0.1,0.1l-0.1,0.1l-0.1,0.1l-0.2,0l-0.1,0.1l-0.2,0L110.2,44.9L110.2,44.9z"/>
		<polygon class="st2" points="117.8,42.8 116.2,42.8 116.2,43.3 117.2,43.3 117.2,44.7 117.1,44.8 116.9,44.8 116.7,44.9 
			116.3,44.9 115.9,44.8 115.6,44.7 115.4,44.7 115.3,44.6 115.1,44.5 115,44.4 114.9,44.2 114.8,44.1 114.7,43.9 114.6,43.7 
			114.5,43.5 114.5,43.3 114.5,43.1 114.4,42.9 114.5,42.6 114.5,42.5 114.5,42.2 114.6,42 114.7,41.9 114.8,41.7 114.9,41.6 
			115,41.4 115.1,41.3 115.3,41.2 115.5,41.1 115.6,41 116,40.9 116.5,40.9 116.8,40.9 117.1,41 117.3,41 117.5,41.1 117.7,40.6 
			117.5,40.5 117.2,40.4 116.9,40.4 116.5,40.4 116.2,40.4 115.9,40.4 115.6,40.5 115.4,40.5 115.1,40.6 114.9,40.8 114.7,40.9 
			114.5,41.1 114.3,41.3 114.2,41.5 114.1,41.6 114,41.9 113.9,42.1 113.8,42.4 113.8,42.6 113.8,42.9 113.8,43.2 113.8,43.5 
			113.9,43.7 114,43.9 114.1,44.2 114.2,44.4 114.3,44.6 114.5,44.8 114.7,44.9 114.9,45 115.1,45.2 115.3,45.2 115.5,45.3 
			115.8,45.3 116,45.4 116.3,45.4 116.8,45.4 117.2,45.3 117.6,45.2 117.8,45.1 		"/>
		<path class="st2" d="M122.2,43.8l0.5,1.5h0.6l-1.7-4.9h-0.8l-1.6,4.9h0.6l0.5-1.5H122.2L122.2,43.8z M120.6,43.3l0.5-1.4l0.1-0.4
			l0.1-0.4h0l0.1,0.4l0.1,0.4l0.5,1.4H120.6z"/>
		<path class="st2" d="M125,45.3h0.6v-2.1h0.6h0.2l0.2,0l0.1,0.1l0.1,0.1l0.1,0.1l0.1,0.1l0.1,0.2l0.1,0.3l0.1,0.4l0.1,0.4l0.1,0.3
			l0.1,0.1h0.6l-0.1-0.2l-0.1-0.3l-0.1-0.4l-0.1-0.5l-0.1-0.4l-0.1-0.3l-0.1-0.1l-0.1-0.1l-0.1-0.1l-0.1,0v0l0.2-0.1l0.1-0.1
			l0.2-0.1l0.1-0.1l0.1-0.2l0.1-0.2l0-0.2l0-0.2l0-0.3l-0.1-0.3l-0.1-0.2l-0.2-0.2l-0.1-0.1l-0.1-0.1l-0.1,0l-0.1-0.1l-0.4-0.1
			l-0.5,0h-0.3l-0.3,0l-0.3,0l-0.3,0v4.8H125z M125.6,40.9l0.3,0h0.4h0.3l0.2,0l0.2,0.1l0.2,0.1l0.1,0.1l0.1,0.2l0.1,0.2v0.2v0.2
			l-0.1,0.2l-0.1,0.2l-0.1,0.1l-0.1,0.1l-0.2,0.1l-0.2,0h-0.3h-0.6L125.6,40.9L125.6,40.9z"/>
	</g>
</g>
</svg>
